<?xml version="1.0" standalone="no"?>
<!DOCTYPE svg PUBLIC "-//W3C//DTD SVG 20010904//EN"
 "http://www.w3.org/TR/2001/REC-SVG-20010904/DTD/svg10.dtd">
<svg version="1.0" xmlns="http://www.w3.org/2000/svg"
 width="1263.000000pt" height="1263.000000pt" viewBox="0 0 1263.000000 1263.000000"
 preserveAspectRatio="xMidYMid meet">
<metadata>
Created by potrace 1.11, written by Peter Selinger 2001-2013
</metadata>
<g transform="translate(0.000000,1263.000000) scale(0.100000,-0.100000)"
fill="#000000" stroke="none">
<path d="M11423 9690 c-17 -4 -48 -16 -69 -27 -40 -20 -57 -54 -129 -253 -25
-71 -135 -340 -166 -407 -31 -69 -55 -122 -104 -233 -54 -121 -66 -147 -133
-290 -27 -58 -75 -161 -107 -230 -31 -69 -63 -132 -69 -140 -7 -8 -38 -73 -70
-145 -188 -416 -358 -725 -401 -725 -8 0 -31 24 -49 53 -103 159 -224 287
-352 373 -58 39 -195 90 -299 112 -47 9 -168 8 -240 -2 -124 -18 -338 -74
-370 -96 -5 -4 -36 -17 -67 -28 -111 -41 -296 -144 -448 -250 -96 -66 -240
-176 -280 -213 -19 -17 -57 -52 -85 -77 -96 -87 -228 -218 -317 -314 -50 -54
-94 -95 -98 -93 -9 6 0 48 29 130 12 33 40 132 62 220 32 123 42 183 44 261
l4 101 -57 28 c-48 24 -110 43 -197 61 -194 40 -248 47 -347 48 -100 1 -108 0
-133 -24 -14 -13 -53 -79 -87 -145 -33 -66 -70 -134 -82 -152 -11 -17 -33 -53
-48 -80 -38 -65 -47 -80 -89 -138 -20 -27 -45 -63 -55 -80 -10 -16 -21 -32
-25 -35 -3 -3 -39 -54 -79 -115 -40 -60 -76 -112 -80 -115 -4 -3 -18 -23 -29
-45 -12 -22 -47 -74 -77 -115 -30 -41 -84 -118 -119 -170 -36 -52 -90 -129
-120 -170 -30 -41 -73 -102 -96 -134 -23 -33 -46 -65 -51 -70 -4 -6 -18 -25
-31 -43 -50 -72 -179 -250 -204 -283 -138 -176 -177 -226 -182 -230 -3 -3 -41
-48 -83 -100 -64 -80 -348 -372 -424 -437 -53 -45 -122 -105 -158 -137 -22
-20 -43 -36 -47 -36 -4 0 -26 -16 -49 -35 -91 -76 -221 -105 -295 -67 -42 21
-72 55 -92 104 -9 20 -11 89 -9 236 l4 207 42 150 c44 160 110 333 182 480 54
109 106 205 123 225 7 8 27 42 44 75 18 33 41 69 50 80 10 11 46 63 81 115 35
52 82 118 104 145 23 28 60 75 82 105 23 30 58 75 80 100 55 63 311 320 420
420 97 90 112 111 116 156 2 42 -22 81 -93 150 -60 56 -171 144 -184 144 -3 0
-23 13 -45 29 -36 26 -202 88 -285 106 -55 13 -223 15 -257 3 -95 -32 -279
-184 -381 -317 -65 -83 -144 -192 -169 -233 -13 -20 -61 -97 -107 -170 -47
-73 -100 -163 -118 -200 -18 -38 -35 -68 -38 -68 -4 0 -109 104 -234 230 -125
127 -235 230 -244 230 -9 0 -17 4 -17 8 0 9 -58 48 -158 107 -68 39 -227 80
-332 83 -107 4 -333 -74 -785 -271 -44 -19 -132 -57 -196 -85 -63 -27 -124
-54 -135 -61 -22 -12 -214 -101 -219 -101 -2 0 -33 -14 -68 -31 -88 -41 -203
-77 -233 -71 -33 6 -31 39 5 88 29 40 124 138 252 259 68 64 96 89 199 180 19
17 52 42 73 58 20 15 46 35 57 45 36 32 288 225 396 302 42 30 96 71 119 90
24 19 58 45 77 58 18 12 74 52 123 88 113 81 360 246 400 266 17 8 67 34 113
57 45 23 139 68 207 101 l125 59 199 -4 c133 -2 212 0 237 8 45 14 87 55 133
131 31 53 34 62 33 145 0 102 -10 132 -94 261 -73 114 -189 230 -317 318 -109
75 -169 96 -296 105 -127 10 -314 -66 -595 -243 -34 -21 -273 -166 -291 -176
-10 -6 -27 -18 -36 -26 -10 -9 -69 -53 -131 -97 -63 -45 -119 -86 -125 -92
-30 -25 -121 -89 -127 -89 -4 0 -23 -14 -41 -30 -19 -17 -74 -58 -124 -92 -49
-34 -98 -70 -108 -79 -11 -10 -56 -42 -100 -73 -45 -30 -93 -66 -107 -78 -27
-24 -58 -47 -150 -110 -49 -33 -189 -139 -245 -184 -11 -9 -63 -48 -115 -88
-52 -39 -97 -74 -100 -78 -3 -3 -41 -34 -85 -67 -44 -33 -91 -71 -105 -84 -14
-13 -50 -42 -81 -65 -31 -23 -89 -77 -130 -120 -65 -67 -101 -109 -207 -239
-13 -15 -30 -43 -38 -62 -8 -18 -23 -41 -32 -51 -20 -22 -38 -56 -87 -168 -35
-80 -37 -89 -38 -200 -2 -171 3 -200 70 -417 46 -150 215 -464 308 -570 80
-93 236 -240 277 -260 81 -42 173 -62 278 -59 192 4 371 72 790 299 63 34 165
88 225 120 61 32 128 68 150 80 22 12 94 51 160 85 66 34 168 89 227 122 58
32 115 60 125 63 10 2 31 8 46 14 39 15 123 16 177 1 60 -16 127 -47 137 -63
4 -7 18 -20 29 -28 35 -23 96 -111 109 -154 11 -41 12 -164 1 -208 -14 -57
-159 -271 -241 -359 -74 -77 -100 -99 -190 -163 -38 -28 -82 -59 -98 -70 -166
-119 -330 -223 -482 -306 -119 -65 -406 -209 -418 -209 -7 0 -24 -6 -38 -14
-37 -19 -224 -73 -277 -80 -24 -3 -60 -10 -80 -15 -86 -22 -162 -24 -713 -17
-108 1 -118 -1 -152 -24 -49 -33 -76 -98 -73 -170 10 -188 110 -466 209 -574
9 -11 17 -23 17 -27 0 -14 66 -49 106 -56 53 -10 421 -10 514 0 41 4 93 10
114 12 22 2 53 6 70 9 17 3 63 8 101 11 39 4 84 8 100 10 121 14 457 115 655
198 88 36 285 137 332 169 14 10 33 18 41 18 8 0 20 7 28 16 7 8 34 26 59 39
25 13 73 41 106 63 32 21 83 51 113 66 63 33 51 44 132 -119 33 -66 72 -142
87 -170 66 -119 107 -191 119 -205 7 -8 23 -29 35 -46 78 -106 106 -138 171
-196 70 -63 192 -148 232 -162 69 -25 300 -26 395 -2 88 24 186 72 304 152 55
36 105 71 112 78 6 6 35 29 64 51 29 22 98 76 154 120 56 44 106 83 111 87 32
24 212 175 225 188 8 9 31 27 50 40 19 13 42 31 50 40 8 9 25 23 37 31 21 15
143 129 328 309 146 142 325 338 325 356 0 7 6 14 13 17 9 3 12 -55 12 -272 0
-252 3 -311 20 -458 5 -41 15 -106 20 -123 1 -3 7 -39 14 -80 23 -132 95 -245
223 -350 131 -108 253 -164 389 -179 78 -8 288 -6 357 4 l42 6 0 57 c5 560 4
537 22 534 19 -3 134 -77 140 -89 3 -8 128 -71 198 -101 35 -15 119 -38 175
-48 17 -3 48 -9 70 -14 39 -9 209 -6 251 3 12 3 39 8 60 11 261 41 700 340
1044 712 85 93 230 271 230 284 0 5 4 10 8 10 13 0 184 237 323 448 34 50 65
92 70 92 5 0 9 -164 10 -382 1 -455 6 -596 24 -678 2 -8 11 -58 20 -110 8 -52
20 -111 27 -130 23 -74 100 -266 113 -280 7 -8 20 -31 30 -50 10 -18 24 -40
32 -48 7 -8 20 -27 28 -43 9 -16 20 -29 24 -29 5 0 22 -14 38 -30 70 -76 222
-140 368 -155 33 -4 71 -9 85 -11 31 -6 234 -5 357 1 96 5 175 25 207 54 26
23 56 90 56 129 0 32 -43 132 -58 132 -13 1 -117 103 -158 156 -53 68 -112
188 -122 244 -14 90 -5 998 12 1075 2 12 7 52 10 90 4 39 9 86 11 105 2 19 7
64 11 100 3 36 7 72 9 80 3 19 14 101 20 160 3 25 7 56 10 70 3 14 7 34 9 45
2 11 9 38 14 60 6 22 13 51 16 65 41 191 94 413 115 485 5 17 24 77 41 135 78
261 195 605 229 675 6 11 21 52 35 90 45 126 156 385 198 463 10 18 18 37 18
43 0 5 16 45 36 87 112 241 160 341 179 372 12 19 36 64 53 100 39 79 92 173
102 180 4 3 22 32 40 65 18 33 76 124 129 202 155 229 174 274 146 338 -23 56
-208 231 -335 316 -344 231 -428 271 -527 249z m-1888 -2872 c114 -25 190 -87
199 -163 12 -98 -120 -331 -353 -620 -53 -65 -103 -129 -112 -142 -43 -63
-338 -368 -524 -542 -91 -85 -286 -230 -415 -309 -58 -36 -123 -77 -145 -92
-22 -15 -91 -42 -153 -60 l-113 -32 -47 25 c-64 33 -86 73 -84 150 2 105 25
178 109 355 29 62 53 116 53 120 0 4 12 25 27 47 15 22 44 71 65 109 60 108
316 453 425 571 10 11 41 47 68 80 129 156 343 329 513 416 69 35 195 80 262
92 41 8 181 5 225 -5z"/>
<path d="M5140 9192 c-33 -3 -40 -11 -112 -120 -82 -126 -83 -133 -8 -126 28
3 50 20 135 107 154 161 145 144 78 143 -32 -1 -74 -2 -93 -4z"/>
<path d="M8804 9165 c-2 -5 -3 -53 -1 -105 l2 -95 118 -3 118 -3 -2 110 -1
110 -115 -2 c-66 -1 -117 -6 -119 -12z"/>
<path d="M5850 8970 c0 -127 -4 -200 -10 -200 -5 0 -10 4 -10 8 0 15 -84 69
-117 76 -17 4 -49 2 -70 -3 -112 -30 -166 -158 -167 -391 0 -131 11 -192 50
-277 20 -44 33 -57 72 -76 26 -13 56 -22 68 -22 62 5 96 19 138 56 l46 41 0
-42 0 -41 110 2 c61 1 110 5 111 8 1 3 3 243 5 534 l3 527 -114 0 -115 0 0
-200z m-13 -339 c4 -14 7 -87 7 -161 0 -147 -11 -186 -52 -201 -19 -7 -29 -3
-54 21 l-30 30 4 159 c3 154 4 159 27 178 33 27 88 12 98 -26z"/>
<path d="M8393 9110 c-17 -5 -18 -17 -18 -130 l0 -125 -45 0 -45 0 -3 -102 -3
-103 49 0 48 0 0 -192 c1 -220 8 -299 32 -329 16 -18 29 -21 124 -22 59 -1
110 1 113 5 4 3 -1 30 -10 60 -12 39 -18 109 -22 268 l-5 215 51 -3 51 -4 0
101 c0 73 -3 101 -12 102 -7 1 -24 3 -38 4 -14 1 -30 3 -36 4 -9 1 -10 37 -7
129 l5 128 -105 0 c-58 -1 -114 -3 -124 -6z"/>
<path d="M9368 8864 c-66 -17 -107 -43 -145 -92 -101 -132 -103 -428 -5 -583
44 -69 83 -84 222 -85 63 -1 130 2 147 7 44 13 95 66 128 133 27 55 27 61 27
229 0 192 -7 232 -55 297 -64 86 -197 126 -319 94z m131 -209 c12 -12 15 -45
16 -174 0 -142 -2 -161 -19 -180 -37 -41 -89 -21 -106 40 -13 43 -4 269 11
302 17 38 66 44 98 12z"/>
<path d="M7090 8843 c-83 -36 -135 -92 -151 -161 -31 -129 -30 -317 2 -432 12
-47 75 -115 124 -136 61 -26 216 -27 282 -2 52 19 139 100 140 130 0 7 4 27 7
43 4 17 9 46 12 65 3 19 7 40 9 47 7 21 -14 26 -120 28 l-103 2 -6 -46 c-13
-95 -67 -139 -112 -90 -17 19 -19 37 -19 158 0 166 5 190 37 214 21 16 29 17
48 7 24 -13 50 -66 50 -104 0 -30 10 -33 85 -30 33 2 76 3 96 3 45 1 50 15 33
97 -15 75 -32 110 -76 153 -52 53 -111 75 -203 77 -66 1 -90 -3 -135 -23z"/>
<path d="M7815 8860 c-89 -20 -168 -91 -180 -161 -4 -21 -4 -43 -1 -48 3 -5
49 -8 102 -7 88 2 98 4 116 26 39 48 128 12 128 -51 0 -29 -10 -35 -70 -43
-103 -12 -217 -62 -256 -111 -13 -16 -31 -38 -40 -47 -27 -28 -28 -171 -3
-224 29 -60 56 -81 124 -95 52 -10 68 -10 119 5 37 11 70 28 86 46 29 32 40
30 40 -6 0 -13 6 -26 13 -31 18 -11 206 -10 210 2 5 13 -1 409 -6 495 -9 135
-41 191 -135 232 -46 21 -190 31 -247 18z m135 -562 c-40 -37 -103 -41 -127
-10 -43 55 21 141 117 159 13 2 27 7 30 10 3 2 6 -26 8 -64 3 -65 2 -69 -28
-95z"/>
<path d="M4974 8851 c-57 -14 -124 -52 -144 -81 -29 -40 -58 -110 -67 -156
-11 -62 -7 -295 6 -341 13 -46 61 -115 102 -145 50 -37 207 -56 289 -36 79 21
122 43 147 76 25 34 51 93 58 133 7 36 -9 41 -129 37 -90 -3 -90 -3 -97 -32
-10 -37 -24 -46 -71 -46 -58 0 -78 26 -78 100 l0 60 173 0 c94 0 182 3 195 7
23 6 23 8 17 87 -16 188 -59 268 -169 317 -54 23 -177 34 -232 20z m149 -179
c12 -13 19 -35 20 -72 l2 -54 -75 -1 -75 0 -3 30 c-6 51 15 102 46 113 35 12
61 7 85 -16z"/>
<path d="M6308 8852 l-98 -3 -1 -107 c-4 -383 -1 -502 12 -547 23 -78 81 -105
195 -90 49 6 62 12 100 51 25 24 46 44 49 44 2 0 3 -21 2 -47 l-2 -47 110 -1
110 0 0 370 0 370 -110 0 -110 0 -2 -85 c-6 -335 -13 -435 -30 -447 -20 -15
-52 -16 -73 -3 -13 8 -15 52 -18 274 -3 239 -5 264 -20 267 -9 2 -61 3 -114 1z"/>
<path d="M8800 8815 c-3 -281 1 -699 6 -704 7 -7 224 -8 225 -1 0 3 3 172 5
375 l4 370 -120 0 -120 1 0 -41z"/>
<path d="M9879 8733 c0 -71 -1 -235 -2 -366 -2 -131 0 -242 4 -248 3 -6 49 -9
109 -7 l104 3 2 110 c6 253 13 373 25 398 10 22 19 27 50 27 21 0 41 -6 46
-12 4 -7 7 -129 6 -270 l-2 -258 117 0 118 0 -2 303 c-2 183 -7 320 -13 344
-17 62 -69 103 -129 103 -79 0 -123 -18 -170 -68 -24 -26 -43 -42 -42 -37 2 6
2 31 1 58 l-1 47 -110 0 -110 0 -1 -127z"/>
</g>
</svg>
